<svg width="96" height="26" viewBox="0 0 96 26" fill="none" xmlns="http://www.w3.org/2000/svg">
<path d="M9.60799 10.6662C9.82836 10.6662 10.0131 10.5917 10.1622 10.4426C10.3112 10.2935 10.3858 10.1088 10.3858 9.88845C10.3858 9.66808 10.3112 9.48336 10.1622 9.33429C10.0131 9.18521 9.82836 9.11068 9.60799 9.11068C9.38762 9.11068 9.20289 9.18521 9.05382 9.33429C8.90475 9.48336 8.83021 9.66808 8.83021 9.88845C8.83021 10.1088 8.90475 10.2935 9.05382 10.4426C9.20289 10.5917 9.38762 10.6662 9.60799 10.6662ZM9.60799 15.3329C9.10243 15.3329 8.64549 15.1935 8.23715 14.9148C7.82882 14.6361 7.53391 14.2699 7.35243 13.8162C7.28762 13.8162 7.22928 13.8195 7.17743 13.826C7.12558 13.8324 7.06725 13.8357 7.00243 13.8357C6.32836 13.8357 5.75151 13.5959 5.27188 13.1162C4.79225 12.6366 4.55243 12.0598 4.55243 11.3857C4.55243 11.1135 4.5978 10.851 4.68854 10.5982C4.77928 10.3454 4.91539 10.1088 5.09688 9.88845C4.92836 9.66808 4.79873 9.43151 4.70799 9.17873C4.61725 8.92595 4.57188 8.66345 4.57188 8.39123C4.57188 7.71716 4.80845 7.14031 5.2816 6.66068C5.75475 6.18105 6.32836 5.94123 7.00243 5.94123C7.06725 5.94123 7.12558 5.94447 7.17743 5.95095C7.22928 5.95744 7.28762 5.96068 7.35243 5.96068C7.53391 5.50697 7.82882 5.14077 8.23715 4.86207C8.64549 4.58336 9.10243 4.44401 9.60799 4.44401C10.1135 4.44401 10.5705 4.58336 10.9788 4.86207C11.3872 5.14077 11.6821 5.50697 11.8635 5.96068C11.9284 5.96068 11.9867 5.95744 12.0385 5.95095C12.0904 5.94447 12.1487 5.94123 12.2135 5.94123C12.8876 5.94123 13.4612 6.18105 13.9344 6.66068C14.4075 7.14031 14.6441 7.71716 14.6441 8.39123C14.6441 8.66345 14.602 8.92595 14.5177 9.17873C14.4334 9.43151 14.3006 9.66808 14.1191 9.88845C14.2876 10.1088 14.4172 10.3454 14.508 10.5982C14.5987 10.851 14.6441 11.1135 14.6441 11.3857C14.6441 12.0598 14.4075 12.6366 13.9344 13.1162C13.4612 13.5959 12.8876 13.8357 12.2135 13.8357C12.1487 13.8357 12.0904 13.8324 12.0385 13.826C11.9867 13.8195 11.9284 13.8162 11.8635 13.8162C11.6821 14.2699 11.3872 14.6361 10.9788 14.9148C10.5705 15.1935 10.1135 15.3329 9.60799 15.3329ZM9.60799 20.7773C9.60799 19.8181 9.79271 18.9139 10.1622 18.0648C10.5316 17.2158 11.0339 16.4736 11.6691 15.8385C12.3043 15.2033 13.0464 14.701 13.8955 14.3315C14.7446 13.9621 15.6487 13.7773 16.608 13.7773C16.608 14.7366 16.4233 15.6408 16.0538 16.4898C15.6844 17.3389 15.1821 18.081 14.5469 18.7162C13.9117 19.3514 13.1696 19.8537 12.3205 20.2232C11.4714 20.5926 10.5672 20.7773 9.60799 20.7773ZM11.5135 18.8718C12.2524 18.5996 12.9006 18.1848 13.458 17.6273C14.0154 17.0699 14.4302 16.4218 14.7024 15.6829C13.9635 15.9551 13.3154 16.3699 12.758 16.9273C12.2006 17.4848 11.7858 18.1329 11.5135 18.8718ZM9.60799 20.7773C9.60799 19.8181 9.42326 18.9139 9.05382 18.0648C8.68438 17.2158 8.18206 16.4736 7.54688 15.8385C6.91169 15.2033 6.16956 14.701 5.32049 14.3315C4.47141 13.9621 3.56725 13.7773 2.60799 13.7773C2.60799 14.7366 2.79271 15.6408 3.16215 16.4898C3.5316 17.3389 4.03391 18.081 4.6691 18.7162C5.30428 19.3514 6.04641 19.8537 6.89549 20.2232C7.74456 20.5926 8.64873 20.7773 9.60799 20.7773ZM7.70243 18.8718C6.96354 18.5996 6.31539 18.1848 5.75799 17.6273C5.20058 17.0699 4.78576 16.4218 4.51354 15.6829C5.25243 15.9551 5.90058 16.3699 6.45799 16.9273C7.01539 17.4848 7.43021 18.1329 7.70243 18.8718ZM12.2135 12.2801C12.4598 12.2801 12.6705 12.1926 12.8455 12.0176C13.0205 11.8426 13.108 11.632 13.108 11.3857C13.108 11.2042 13.0594 11.0454 12.9622 10.9093C12.8649 10.7732 12.7385 10.6662 12.583 10.5885L11.9024 10.2579C11.8765 10.4005 11.8376 10.5398 11.7858 10.676C11.7339 10.8121 11.6756 10.9385 11.6108 11.0551C11.5459 11.1718 11.4682 11.282 11.3774 11.3857C11.2867 11.4894 11.1895 11.5866 11.0858 11.6773L11.708 12.1246C11.7728 12.1764 11.8473 12.2153 11.9316 12.2412C12.0159 12.2672 12.1098 12.2801 12.2135 12.2801ZM11.9024 9.51901L12.583 9.18845C12.7385 9.11068 12.8617 9.00049 12.9524 8.8579C13.0432 8.71531 13.0885 8.55975 13.0885 8.39123C13.0885 8.14494 13.0043 7.93429 12.8358 7.75929C12.6672 7.58429 12.4598 7.49679 12.2135 7.49679C12.1098 7.49679 12.0191 7.50975 11.9413 7.53568C11.8635 7.5616 11.7858 7.60049 11.708 7.65234L11.0663 8.09957C11.17 8.19031 11.2705 8.28753 11.3677 8.39123C11.4649 8.49494 11.5459 8.60512 11.6108 8.72179C11.6756 8.83845 11.7339 8.96484 11.7858 9.10095C11.8376 9.23707 11.8765 9.37642 11.9024 9.51901ZM8.81076 7.71068C8.94039 7.65882 9.07002 7.61994 9.19965 7.59401C9.32928 7.56808 9.46539 7.55512 9.60799 7.55512C9.75058 7.55512 9.88669 7.56808 10.0163 7.59401C10.1459 7.61994 10.2756 7.65882 10.4052 7.71068L10.5024 6.85512C10.5284 6.62179 10.4473 6.42086 10.2594 6.25234C10.0714 6.08383 9.85428 5.99957 9.60799 5.99957C9.36169 5.99957 9.14456 6.08383 8.9566 6.25234C8.76863 6.42086 8.68762 6.62179 8.71354 6.85512L8.81076 7.71068ZM9.60799 13.7773C9.85428 13.7773 10.0714 13.6931 10.2594 13.5246C10.4473 13.356 10.5284 13.1551 10.5024 12.9218L10.4052 12.0662C10.2756 12.1181 10.1459 12.157 10.0163 12.1829C9.88669 12.2088 9.75058 12.2218 9.60799 12.2218C9.46539 12.2218 9.32928 12.2088 9.19965 12.1829C9.07002 12.157 8.94039 12.1181 8.81076 12.0662L8.71354 12.9218C8.68762 13.1551 8.76863 13.356 8.9566 13.5246C9.14456 13.6931 9.36169 13.7773 9.60799 13.7773ZM7.31354 9.51901C7.33947 9.37642 7.37836 9.23707 7.43021 9.10095C7.48206 8.96484 7.54039 8.83845 7.60521 8.72179C7.67002 8.60512 7.7478 8.49494 7.83854 8.39123C7.92928 8.28753 8.0265 8.19031 8.13021 8.09957L7.50799 7.65234C7.44317 7.60049 7.36863 7.5616 7.28438 7.53568C7.20012 7.50975 7.10613 7.49679 7.00243 7.49679C6.75613 7.49679 6.54549 7.58429 6.37049 7.75929C6.19549 7.93429 6.10799 8.14494 6.10799 8.39123C6.10799 8.55975 6.1566 8.71531 6.25382 8.8579C6.35104 9.00049 6.47743 9.11068 6.63299 9.18845L7.31354 9.51901ZM7.00243 12.2607C7.10613 12.2607 7.19688 12.251 7.27465 12.2315C7.35243 12.2121 7.43021 12.1699 7.50799 12.1051L8.14965 11.6773C8.04595 11.5866 7.94549 11.4894 7.84826 11.3857C7.75104 11.282 7.67002 11.1718 7.60521 11.0551C7.54039 10.9385 7.48206 10.8121 7.43021 10.676C7.37836 10.5398 7.33947 10.4005 7.31354 10.2579L6.63299 10.5885C6.47743 10.6662 6.35428 10.7764 6.26354 10.919C6.1728 11.0616 6.12743 11.2172 6.12743 11.3857C6.14039 11.632 6.22789 11.8394 6.38993 12.0079C6.55197 12.1764 6.75613 12.2607 7.00243 12.2607Z" fill="#660033"/>
<path d="M9.60799 10.6662C9.82836 10.6662 10.0131 10.5917 10.1622 10.4426C10.3112 10.2935 10.3858 10.1088 10.3858 9.88845C10.3858 9.66808 10.3112 9.48336 10.1622 9.33429C10.0131 9.18521 9.82836 9.11068 9.60799 9.11068C9.38762 9.11068 9.20289 9.18521 9.05382 9.33429C8.90475 9.48336 8.83021 9.66808 8.83021 9.88845C8.83021 10.1088 8.90475 10.2935 9.05382 10.4426C9.20289 10.5917 9.38762 10.6662 9.60799 10.6662ZM9.60799 15.3329C9.10243 15.3329 8.64549 15.1935 8.23715 14.9148C7.82882 14.6361 7.53391 14.2699 7.35243 13.8162C7.28762 13.8162 7.22928 13.8195 7.17743 13.826C7.12558 13.8324 7.06725 13.8357 7.00243 13.8357C6.32836 13.8357 5.75151 13.5959 5.27188 13.1162C4.79225 12.6366 4.55243 12.0598 4.55243 11.3857C4.55243 11.1135 4.5978 10.851 4.68854 10.5982C4.77928 10.3454 4.91539 10.1088 5.09688 9.88845C4.92836 9.66808 4.79873 9.43151 4.70799 9.17873C4.61725 8.92595 4.57188 8.66345 4.57188 8.39123C4.57188 7.71716 4.80845 7.14031 5.2816 6.66068C5.75475 6.18105 6.32836 5.94123 7.00243 5.94123C7.06725 5.94123 7.12558 5.94447 7.17743 5.95095C7.22928 5.95744 7.28762 5.96068 7.35243 5.96068C7.53391 5.50697 7.82882 5.14077 8.23715 4.86207C8.64549 4.58336 9.10243 4.44401 9.60799 4.44401C10.1135 4.44401 10.5705 4.58336 10.9788 4.86207C11.3872 5.14077 11.6821 5.50697 11.8635 5.96068C11.9284 5.96068 11.9867 5.95744 12.0385 5.95095C12.0904 5.94447 12.1487 5.94123 12.2135 5.94123C12.8876 5.94123 13.4612 6.18105 13.9344 6.66068C14.4075 7.14031 14.6441 7.71716 14.6441 8.39123C14.6441 8.66345 14.602 8.92595 14.5177 9.17873C14.4334 9.43151 14.3006 9.66808 14.1191 9.88845C14.2876 10.1088 14.4172 10.3454 14.508 10.5982C14.5987 10.851 14.6441 11.1135 14.6441 11.3857C14.6441 12.0598 14.4075 12.6366 13.9344 13.1162C13.4612 13.5959 12.8876 13.8357 12.2135 13.8357C12.1487 13.8357 12.0904 13.8324 12.0385 13.826C11.9867 13.8195 11.9284 13.8162 11.8635 13.8162C11.6821 14.2699 11.3872 14.6361 10.9788 14.9148C10.5705 15.1935 10.1135 15.3329 9.60799 15.3329ZM9.60799 20.7773C9.60799 19.8181 9.79271 18.9139 10.1622 18.0648C10.5316 17.2158 11.0339 16.4736 11.6691 15.8385C12.3043 15.2033 13.0464 14.701 13.8955 14.3315C14.7446 13.9621 15.6487 13.7773 16.608 13.7773C16.608 14.7366 16.4233 15.6408 16.0538 16.4898C15.6844 17.3389 15.1821 18.081 14.5469 18.7162C13.9117 19.3514 13.1696 19.8537 12.3205 20.2232C11.4714 20.5926 10.5672 20.7773 9.60799 20.7773ZM11.5135 18.8718C12.2524 18.5996 12.9006 18.1848 13.458 17.6273C14.0154 17.0699 14.4302 16.4218 14.7024 15.6829C13.9635 15.9551 13.3154 16.3699 12.758 16.9273C12.2006 17.4848 11.7858 18.1329 11.5135 18.8718ZM9.60799 20.7773C9.60799 19.8181 9.42326 18.9139 9.05382 18.0648C8.68438 17.2158 8.18206 16.4736 7.54688 15.8385C6.91169 15.2033 6.16956 14.701 5.32049 14.3315C4.47141 13.9621 3.56725 13.7773 2.60799 13.7773C2.60799 14.7366 2.79271 15.6408 3.16215 16.4898C3.5316 17.3389 4.03391 18.081 4.6691 18.7162C5.30428 19.3514 6.04641 19.8537 6.89549 20.2232C7.74456 20.5926 8.64873 20.7773 9.60799 20.7773ZM7.70243 18.8718C6.96354 18.5996 6.31539 18.1848 5.75799 17.6273C5.20058 17.0699 4.78576 16.4218 4.51354 15.6829C5.25243 15.9551 5.90058 16.3699 6.45799 16.9273C7.01539 17.4848 7.43021 18.1329 7.70243 18.8718ZM12.2135 12.2801C12.4598 12.2801 12.6705 12.1926 12.8455 12.0176C13.0205 11.8426 13.108 11.632 13.108 11.3857C13.108 11.2042 13.0594 11.0454 12.9622 10.9093C12.8649 10.7732 12.7385 10.6662 12.583 10.5885L11.9024 10.2579C11.8765 10.4005 11.8376 10.5398 11.7858 10.676C11.7339 10.8121 11.6756 10.9385 11.6108 11.0551C11.5459 11.1718 11.4682 11.282 11.3774 11.3857C11.2867 11.4894 11.1895 11.5866 11.0858 11.6773L11.708 12.1246C11.7728 12.1764 11.8473 12.2153 11.9316 12.2412C12.0159 12.2672 12.1098 12.2801 12.2135 12.2801ZM11.9024 9.51901L12.583 9.18845C12.7385 9.11068 12.8617 9.00049 12.9524 8.8579C13.0432 8.71531 13.0885 8.55975 13.0885 8.39123C13.0885 8.14494 13.0043 7.93429 12.8358 7.75929C12.6672 7.58429 12.4598 7.49679 12.2135 7.49679C12.1098 7.49679 12.0191 7.50975 11.9413 7.53568C11.8635 7.5616 11.7858 7.60049 11.708 7.65234L11.0663 8.09957C11.17 8.19031 11.2705 8.28753 11.3677 8.39123C11.4649 8.49494 11.5459 8.60512 11.6108 8.72179C11.6756 8.83845 11.7339 8.96484 11.7858 9.10095C11.8376 9.23707 11.8765 9.37642 11.9024 9.51901ZM8.81076 7.71068C8.94039 7.65882 9.07002 7.61994 9.19965 7.59401C9.32928 7.56808 9.46539 7.55512 9.60799 7.55512C9.75058 7.55512 9.88669 7.56808 10.0163 7.59401C10.1459 7.61994 10.2756 7.65882 10.4052 7.71068L10.5024 6.85512C10.5284 6.62179 10.4473 6.42086 10.2594 6.25234C10.0714 6.08383 9.85428 5.99957 9.60799 5.99957C9.36169 5.99957 9.14456 6.08383 8.9566 6.25234C8.76863 6.42086 8.68762 6.62179 8.71354 6.85512L8.81076 7.71068ZM9.60799 13.7773C9.85428 13.7773 10.0714 13.6931 10.2594 13.5246C10.4473 13.356 10.5284 13.1551 10.5024 12.9218L10.4052 12.0662C10.2756 12.1181 10.1459 12.157 10.0163 12.1829C9.88669 12.2088 9.75058 12.2218 9.60799 12.2218C9.46539 12.2218 9.32928 12.2088 9.19965 12.1829C9.07002 12.157 8.94039 12.1181 8.81076 12.0662L8.71354 12.9218C8.68762 13.1551 8.76863 13.356 8.9566 13.5246C9.14456 13.6931 9.36169 13.7773 9.60799 13.7773ZM7.31354 9.51901C7.33947 9.37642 7.37836 9.23707 7.43021 9.10095C7.48206 8.96484 7.54039 8.83845 7.60521 8.72179C7.67002 8.60512 7.7478 8.49494 7.83854 8.39123C7.92928 8.28753 8.0265 8.19031 8.13021 8.09957L7.50799 7.65234C7.44317 7.60049 7.36863 7.5616 7.28438 7.53568C7.20012 7.50975 7.10613 7.49679 7.00243 7.49679C6.75613 7.49679 6.54549 7.58429 6.37049 7.75929C6.19549 7.93429 6.10799 8.14494 6.10799 8.39123C6.10799 8.55975 6.1566 8.71531 6.25382 8.8579C6.35104 9.00049 6.47743 9.11068 6.63299 9.18845L7.31354 9.51901ZM7.00243 12.2607C7.10613 12.2607 7.19688 12.251 7.27465 12.2315C7.35243 12.2121 7.43021 12.1699 7.50799 12.1051L8.14965 11.6773C8.04595 11.5866 7.94549 11.4894 7.84826 11.3857C7.75104 11.282 7.67002 11.1718 7.60521 11.0551C7.54039 10.9385 7.48206 10.8121 7.43021 10.676C7.37836 10.5398 7.33947 10.4005 7.31354 10.2579L6.63299 10.5885C6.47743 10.6662 6.35428 10.7764 6.26354 10.919C6.1728 11.0616 6.12743 11.2172 6.12743 11.3857C6.14039 11.632 6.22789 11.8394 6.38993 12.0079C6.55197 12.1764 6.75613 12.2607 7.00243 12.2607Z" fill="#660033"/>
<path d="M33.6416 20.2304C32.6048 20.2304 31.6384 20.064 30.7424 19.7312C29.8592 19.3856 29.0912 18.8992 28.4384 18.272C27.7856 17.6448 27.2736 16.9088 26.9024 16.064C26.544 15.2192 26.3648 14.2912 26.3648 13.28C26.3648 12.2688 26.544 11.3408 26.9024 10.496C27.2736 9.6512 27.7856 8.9152 28.4384 8.288C29.104 7.6608 29.8784 7.1808 30.7616 6.848C31.6448 6.5024 32.6112 6.3296 33.6608 6.3296C34.8256 6.3296 35.8752 6.5344 36.8096 6.944C37.7568 7.3408 38.5504 7.9296 39.1904 8.7104L37.1936 10.5536C36.7328 10.0288 36.2208 9.6384 35.6576 9.3824C35.0944 9.1136 34.48 8.9792 33.8144 8.9792C33.1872 8.9792 32.6112 9.0816 32.0864 9.2864C31.5616 9.4912 31.1072 9.7856 30.7232 10.1696C30.3392 10.5536 30.0384 11.008 29.8208 11.5328C29.616 12.0576 29.5136 12.64 29.5136 13.28C29.5136 13.92 29.616 14.5024 29.8208 15.0272C30.0384 15.552 30.3392 16.0064 30.7232 16.3904C31.1072 16.7744 31.5616 17.0688 32.0864 17.2736C32.6112 17.4784 33.1872 17.5808 33.8144 17.5808C34.48 17.5808 35.0944 17.4528 35.6576 17.1968C36.2208 16.928 36.7328 16.5248 37.1936 15.9872L39.1904 17.8304C38.5504 18.6112 37.7568 19.2064 36.8096 19.616C35.8752 20.0256 34.8192 20.2304 33.6416 20.2304ZM47.0714 20V17.984L46.8794 17.5424V13.9328C46.8794 13.2928 46.681 12.7936 46.2842 12.4352C45.9002 12.0768 45.305 11.8976 44.4986 11.8976C43.9482 11.8976 43.4042 11.9872 42.8666 12.1664C42.3418 12.3328 41.8938 12.5632 41.5226 12.8576L40.4474 10.7648C41.0106 10.368 41.689 10.0608 42.4826 9.8432C43.2762 9.6256 44.0826 9.5168 44.9018 9.5168C46.4762 9.5168 47.6986 9.888 48.569 10.6304C49.4394 11.3728 49.8746 12.5312 49.8746 14.1056V20H47.0714ZM43.9226 20.1536C43.1162 20.1536 42.425 20.0192 41.849 19.7504C41.273 19.4688 40.8314 19.0912 40.5242 18.6176C40.217 18.144 40.0634 17.6128 40.0634 17.024C40.0634 16.4096 40.2106 15.872 40.505 15.4112C40.8122 14.9504 41.2922 14.592 41.945 14.336C42.5978 14.0672 43.449 13.9328 44.4986 13.9328H47.2442V15.68H44.825C44.121 15.68 43.6346 15.7952 43.3658 16.0256C43.1098 16.256 42.9818 16.544 42.9818 16.8896C42.9818 17.2736 43.129 17.5808 43.4234 17.8112C43.7306 18.0288 44.1466 18.1376 44.6714 18.1376C45.1706 18.1376 45.6186 18.0224 46.0154 17.792C46.4122 17.5488 46.7002 17.1968 46.8794 16.736L47.3402 18.1184C47.1226 18.784 46.7258 19.2896 46.1498 19.6352C45.5738 19.9808 44.8314 20.1536 43.9226 20.1536ZM55.7726 20.1536C54.8894 20.1536 54.0382 20.0512 53.219 19.8464C52.4126 19.6288 51.7726 19.36 51.299 19.04L52.2974 16.8896C52.771 17.184 53.3278 17.4272 53.9678 17.6192C54.6206 17.7984 55.2606 17.888 55.8878 17.888C56.579 17.888 57.0654 17.8048 57.347 17.6384C57.6414 17.472 57.7886 17.2416 57.7886 16.9472C57.7886 16.704 57.6734 16.5248 57.443 16.4096C57.2254 16.2816 56.931 16.1856 56.5598 16.1216C56.1886 16.0576 55.779 15.9936 55.331 15.9296C54.8958 15.8656 54.4542 15.7824 54.0062 15.68C53.5582 15.5648 53.1486 15.3984 52.7774 15.1808C52.4062 14.9632 52.1054 14.6688 51.875 14.2976C51.6574 13.9264 51.5486 13.4464 51.5486 12.8576C51.5486 12.2048 51.7342 11.6288 52.1054 11.1296C52.4894 10.6304 53.0398 10.24 53.7566 9.9584C54.4734 9.664 55.331 9.5168 56.3294 9.5168C57.0334 9.5168 57.7502 9.5936 58.4798 9.7472C59.2094 9.9008 59.8174 10.1248 60.3038 10.4192L59.3054 12.5504C58.8062 12.256 58.3006 12.0576 57.7886 11.9552C57.2894 11.84 56.803 11.7824 56.3294 11.7824C55.6638 11.7824 55.1774 11.872 54.8702 12.0512C54.563 12.2304 54.4094 12.4608 54.4094 12.7424C54.4094 12.9984 54.5182 13.1904 54.7358 13.3184C54.9662 13.4464 55.267 13.5488 55.6382 13.6256C56.0094 13.7024 56.4126 13.7728 56.8478 13.8368C57.2958 13.888 57.7438 13.9712 58.1918 14.0864C58.6398 14.2016 59.043 14.368 59.4014 14.5856C59.7726 14.7904 60.0734 15.0784 60.3038 15.4496C60.5342 15.808 60.6494 16.2816 60.6494 16.8704C60.6494 17.5104 60.4574 18.08 60.0734 18.5792C59.6894 19.0656 59.1326 19.4496 58.403 19.7312C57.6862 20.0128 56.8094 20.1536 55.7726 20.1536ZM65.6846 20.1536C64.8014 20.1536 63.9502 20.0512 63.131 19.8464C62.3246 19.6288 61.6846 19.36 61.211 19.04L62.2094 16.8896C62.683 17.184 63.2398 17.4272 63.8798 17.6192C64.5326 17.7984 65.1726 17.888 65.7998 17.888C66.491 17.888 66.9774 17.8048 67.259 17.6384C67.5534 17.472 67.7006 17.2416 67.7006 16.9472C67.7006 16.704 67.5854 16.5248 67.355 16.4096C67.1374 16.2816 66.843 16.1856 66.4718 16.1216C66.1006 16.0576 65.691 15.9936 65.243 15.9296C64.8078 15.8656 64.3662 15.7824 63.9182 15.68C63.4702 15.5648 63.0606 15.3984 62.6894 15.1808C62.3182 14.9632 62.0174 14.6688 61.787 14.2976C61.5694 13.9264 61.4606 13.4464 61.4606 12.8576C61.4606 12.2048 61.6462 11.6288 62.0174 11.1296C62.4014 10.6304 62.9518 10.24 63.6686 9.9584C64.3854 9.664 65.243 9.5168 66.2414 9.5168C66.9454 9.5168 67.6622 9.5936 68.3918 9.7472C69.1214 9.9008 69.7294 10.1248 70.2158 10.4192L69.2174 12.5504C68.7182 12.256 68.2126 12.0576 67.7006 11.9552C67.2014 11.84 66.715 11.7824 66.2414 11.7824C65.5758 11.7824 65.0894 11.872 64.7822 12.0512C64.475 12.2304 64.3214 12.4608 64.3214 12.7424C64.3214 12.9984 64.4302 13.1904 64.6478 13.3184C64.8782 13.4464 65.179 13.5488 65.5502 13.6256C65.9214 13.7024 66.3246 13.7728 66.7598 13.8368C67.2078 13.888 67.6558 13.9712 68.1038 14.0864C68.5518 14.2016 68.955 14.368 69.3134 14.5856C69.6846 14.7904 69.9854 15.0784 70.2158 15.4496C70.4462 15.808 70.5614 16.2816 70.5614 16.8704C70.5614 17.5104 70.3694 18.08 69.9854 18.5792C69.6014 19.0656 69.0446 19.4496 68.315 19.7312C67.5982 20.0128 66.7214 20.1536 65.6846 20.1536ZM72.1214 20V9.6704H75.1166V20H72.1214ZM73.619 8.2304C73.0686 8.2304 72.6206 8.0704 72.275 7.7504C71.9294 7.4304 71.7566 7.0336 71.7566 6.56C71.7566 6.0864 71.9294 5.6896 72.275 5.3696C72.6206 5.0496 73.0686 4.8896 73.619 4.8896C74.1694 4.8896 74.6174 5.0432 74.963 5.3504C75.3086 5.6448 75.4814 6.0288 75.4814 6.5024C75.4814 7.0016 75.3086 7.4176 74.963 7.7504C74.6302 8.0704 74.1822 8.2304 73.619 8.2304ZM83.8868 9.5168C84.706 9.5168 85.4356 9.6832 86.0756 10.016C86.7284 10.336 87.2404 10.8352 87.6116 11.5136C87.9828 12.1792 88.1684 13.0368 88.1684 14.0864V20H85.1732V14.5472C85.1732 13.7152 84.9876 13.1008 84.6164 12.704C84.258 12.3072 83.746 12.1088 83.0804 12.1088C82.6068 12.1088 82.178 12.2112 81.794 12.416C81.4228 12.608 81.1284 12.9088 80.9108 13.3184C80.706 13.728 80.6036 14.2528 80.6036 14.8928V20H77.6084V9.6704H80.4692V12.5312L79.9316 11.6672C80.3028 10.976 80.834 10.4448 81.5252 10.0736C82.2164 9.7024 83.0036 9.5168 83.8868 9.5168ZM90.5954 20V9.6704H93.5906V20H90.5954ZM92.093 8.2304C91.5426 8.2304 91.0946 8.0704 90.749 7.7504C90.4034 7.4304 90.2306 7.0336 90.2306 6.56C90.2306 6.0864 90.4034 5.6896 90.749 5.3696C91.0946 5.0496 91.5426 4.8896 92.093 4.8896C92.6434 4.8896 93.0914 5.0432 93.437 5.3504C93.7826 5.6448 93.9554 6.0288 93.9554 6.5024C93.9554 7.0016 93.7826 7.4176 93.437 7.7504C93.1042 8.0704 92.6562 8.2304 92.093 8.2304Z" fill="#660033"/>
<path d="M33.6416 20.2304C32.6048 20.2304 31.6384 20.064 30.7424 19.7312C29.8592 19.3856 29.0912 18.8992 28.4384 18.272C27.7856 17.6448 27.2736 16.9088 26.9024 16.064C26.544 15.2192 26.3648 14.2912 26.3648 13.28C26.3648 12.2688 26.544 11.3408 26.9024 10.496C27.2736 9.6512 27.7856 8.9152 28.4384 8.288C29.104 7.6608 29.8784 7.1808 30.7616 6.848C31.6448 6.5024 32.6112 6.3296 33.6608 6.3296C34.8256 6.3296 35.8752 6.5344 36.8096 6.944C37.7568 7.3408 38.5504 7.9296 39.1904 8.7104L37.1936 10.5536C36.7328 10.0288 36.2208 9.6384 35.6576 9.3824C35.0944 9.1136 34.48 8.9792 33.8144 8.9792C33.1872 8.9792 32.6112 9.0816 32.0864 9.2864C31.5616 9.4912 31.1072 9.7856 30.7232 10.1696C30.3392 10.5536 30.0384 11.008 29.8208 11.5328C29.616 12.0576 29.5136 12.64 29.5136 13.28C29.5136 13.92 29.616 14.5024 29.8208 15.0272C30.0384 15.552 30.3392 16.0064 30.7232 16.3904C31.1072 16.7744 31.5616 17.0688 32.0864 17.2736C32.6112 17.4784 33.1872 17.5808 33.8144 17.5808C34.48 17.5808 35.0944 17.4528 35.6576 17.1968C36.2208 16.928 36.7328 16.5248 37.1936 15.9872L39.1904 17.8304C38.5504 18.6112 37.7568 19.2064 36.8096 19.616C35.8752 20.0256 34.8192 20.2304 33.6416 20.2304ZM47.0714 20V17.984L46.8794 17.5424V13.9328C46.8794 13.2928 46.681 12.7936 46.2842 12.4352C45.9002 12.0768 45.305 11.8976 44.4986 11.8976C43.9482 11.8976 43.4042 11.9872 42.8666 12.1664C42.3418 12.3328 41.8938 12.5632 41.5226 12.8576L40.4474 10.7648C41.0106 10.368 41.689 10.0608 42.4826 9.8432C43.2762 9.6256 44.0826 9.5168 44.9018 9.5168C46.4762 9.5168 47.6986 9.888 48.569 10.6304C49.4394 11.3728 49.8746 12.5312 49.8746 14.1056V20H47.0714ZM43.9226 20.1536C43.1162 20.1536 42.425 20.0192 41.849 19.7504C41.273 19.4688 40.8314 19.0912 40.5242 18.6176C40.217 18.144 40.0634 17.6128 40.0634 17.024C40.0634 16.4096 40.2106 15.872 40.505 15.4112C40.8122 14.9504 41.2922 14.592 41.945 14.336C42.5978 14.0672 43.449 13.9328 44.4986 13.9328H47.2442V15.68H44.825C44.121 15.68 43.6346 15.7952 43.3658 16.0256C43.1098 16.256 42.9818 16.544 42.9818 16.8896C42.9818 17.2736 43.129 17.5808 43.4234 17.8112C43.7306 18.0288 44.1466 18.1376 44.6714 18.1376C45.1706 18.1376 45.6186 18.0224 46.0154 17.792C46.4122 17.5488 46.7002 17.1968 46.8794 16.736L47.3402 18.1184C47.1226 18.784 46.7258 19.2896 46.1498 19.6352C45.5738 19.9808 44.8314 20.1536 43.9226 20.1536ZM55.7726 20.1536C54.8894 20.1536 54.0382 20.0512 53.219 19.8464C52.4126 19.6288 51.7726 19.36 51.299 19.04L52.2974 16.8896C52.771 17.184 53.3278 17.4272 53.9678 17.6192C54.6206 17.7984 55.2606 17.888 55.8878 17.888C56.579 17.888 57.0654 17.8048 57.347 17.6384C57.6414 17.472 57.7886 17.2416 57.7886 16.9472C57.7886 16.704 57.6734 16.5248 57.443 16.4096C57.2254 16.2816 56.931 16.1856 56.5598 16.1216C56.1886 16.0576 55.779 15.9936 55.331 15.9296C54.8958 15.8656 54.4542 15.7824 54.0062 15.68C53.5582 15.5648 53.1486 15.3984 52.7774 15.1808C52.4062 14.9632 52.1054 14.6688 51.875 14.2976C51.6574 13.9264 51.5486 13.4464 51.5486 12.8576C51.5486 12.2048 51.7342 11.6288 52.1054 11.1296C52.4894 10.6304 53.0398 10.24 53.7566 9.9584C54.4734 9.664 55.331 9.5168 56.3294 9.5168C57.0334 9.5168 57.7502 9.5936 58.4798 9.7472C59.2094 9.9008 59.8174 10.1248 60.3038 10.4192L59.3054 12.5504C58.8062 12.256 58.3006 12.0576 57.7886 11.9552C57.2894 11.84 56.803 11.7824 56.3294 11.7824C55.6638 11.7824 55.1774 11.872 54.8702 12.0512C54.563 12.2304 54.4094 12.4608 54.4094 12.7424C54.4094 12.9984 54.5182 13.1904 54.7358 13.3184C54.9662 13.4464 55.267 13.5488 55.6382 13.6256C56.0094 13.7024 56.4126 13.7728 56.8478 13.8368C57.2958 13.888 57.7438 13.9712 58.1918 14.0864C58.6398 14.2016 59.043 14.368 59.4014 14.5856C59.7726 14.7904 60.0734 15.0784 60.3038 15.4496C60.5342 15.808 60.6494 16.2816 60.6494 16.8704C60.6494 17.5104 60.4574 18.08 60.0734 18.5792C59.6894 19.0656 59.1326 19.4496 58.403 19.7312C57.6862 20.0128 56.8094 20.1536 55.7726 20.1536ZM65.6846 20.1536C64.8014 20.1536 63.9502 20.0512 63.131 19.8464C62.3246 19.6288 61.6846 19.36 61.211 19.04L62.2094 16.8896C62.683 17.184 63.2398 17.4272 63.8798 17.6192C64.5326 17.7984 65.1726 17.888 65.7998 17.888C66.491 17.888 66.9774 17.8048 67.259 17.6384C67.5534 17.472 67.7006 17.2416 67.7006 16.9472C67.7006 16.704 67.5854 16.5248 67.355 16.4096C67.1374 16.2816 66.843 16.1856 66.4718 16.1216C66.1006 16.0576 65.691 15.9936 65.243 15.9296C64.8078 15.8656 64.3662 15.7824 63.9182 15.68C63.4702 15.5648 63.0606 15.3984 62.6894 15.1808C62.3182 14.9632 62.0174 14.6688 61.787 14.2976C61.5694 13.9264 61.4606 13.4464 61.4606 12.8576C61.4606 12.2048 61.6462 11.6288 62.0174 11.1296C62.4014 10.6304 62.9518 10.24 63.6686 9.9584C64.3854 9.664 65.243 9.5168 66.2414 9.5168C66.9454 9.5168 67.6622 9.5936 68.3918 9.7472C69.1214 9.9008 69.7294 10.1248 70.2158 10.4192L69.2174 12.5504C68.7182 12.256 68.2126 12.0576 67.7006 11.9552C67.2014 11.84 66.715 11.7824 66.2414 11.7824C65.5758 11.7824 65.0894 11.872 64.7822 12.0512C64.475 12.2304 64.3214 12.4608 64.3214 12.7424C64.3214 12.9984 64.4302 13.1904 64.6478 13.3184C64.8782 13.4464 65.179 13.5488 65.5502 13.6256C65.9214 13.7024 66.3246 13.7728 66.7598 13.8368C67.2078 13.888 67.6558 13.9712 68.1038 14.0864C68.5518 14.2016 68.955 14.368 69.3134 14.5856C69.6846 14.7904 69.9854 15.0784 70.2158 15.4496C70.4462 15.808 70.5614 16.2816 70.5614 16.8704C70.5614 17.5104 70.3694 18.08 69.9854 18.5792C69.6014 19.0656 69.0446 19.4496 68.315 19.7312C67.5982 20.0128 66.7214 20.1536 65.6846 20.1536ZM72.1214 20V9.6704H75.1166V20H72.1214ZM73.619 8.2304C73.0686 8.2304 72.6206 8.0704 72.275 7.7504C71.9294 7.4304 71.7566 7.0336 71.7566 6.56C71.7566 6.0864 71.9294 5.6896 72.275 5.3696C72.6206 5.0496 73.0686 4.8896 73.619 4.8896C74.1694 4.8896 74.6174 5.0432 74.963 5.3504C75.3086 5.6448 75.4814 6.0288 75.4814 6.5024C75.4814 7.0016 75.3086 7.4176 74.963 7.7504C74.6302 8.0704 74.1822 8.2304 73.619 8.2304ZM83.8868 9.5168C84.706 9.5168 85.4356 9.6832 86.0756 10.016C86.7284 10.336 87.2404 10.8352 87.6116 11.5136C87.9828 12.1792 88.1684 13.0368 88.1684 14.0864V20H85.1732V14.5472C85.1732 13.7152 84.9876 13.1008 84.6164 12.704C84.258 12.3072 83.746 12.1088 83.0804 12.1088C82.6068 12.1088 82.178 12.2112 81.794 12.416C81.4228 12.608 81.1284 12.9088 80.9108 13.3184C80.706 13.728 80.6036 14.2528 80.6036 14.8928V20H77.6084V9.6704H80.4692V12.5312L79.9316 11.6672C80.3028 10.976 80.834 10.4448 81.5252 10.0736C82.2164 9.7024 83.0036 9.5168 83.8868 9.5168ZM90.5954 20V9.6704H93.5906V20H90.5954ZM92.093 8.2304C91.5426 8.2304 91.0946 8.0704 90.749 7.7504C90.4034 7.4304 90.2306 7.0336 90.2306 6.56C90.2306 6.0864 90.4034 5.6896 90.749 5.3696C91.0946 5.0496 91.5426 4.8896 92.093 4.8896C92.6434 4.8896 93.0914 5.0432 93.437 5.3504C93.7826 5.6448 93.9554 6.0288 93.9554 6.5024C93.9554 7.0016 93.7826 7.4176 93.437 7.7504C93.1042 8.0704 92.6562 8.2304 92.093 8.2304Z" fill="#660033"/>
</svg>
